PathFileType	4	(X/Y/Z)	Patient4_TMGait_0pt2_01_right_11.trc.trc
DataRate	CameraRate	NumFrames	NumMarkers	Units	OrigDataRate	OrigDataStartFrame	OrigNumFrames
43.076923076923	43.076923076923	4	33	mm	43.076923076923	53	       141
Frame#	Time	Sacral			L.Shoulder			Chest			R.Shoulder			Neck			R.ASIS			L.ASIS			R.Thigh.Superior			R.Thigh.Lateral			R.Thigh.Inferior			R.Patella			L.Thigh.Superior			L.Thigh.Lateral			L.Thigh.Inferior			L.Patella			L.Shank.Superior			L.Shank.Lateral			L.Shank.Inferior			R.Shank.Superior			R.Shank.Lateral			R.Shank.Inferior			R.Heel			R.Midfoot.Superior			R.Midfoot.Lateral			R.Toe			L.Heel			L.Midfoot.Lateral			L.Midfoot.Superior			L.Toe			L.Elbow			L.Wrist			R.Elbow			R.Wrist			
		X1	Y1	Z1	X2	Y2	Z2	X3	Y3	Z3	X4	Y4	Z4	X5	Y5	Z5	X6	Y6	Z6	X7	Y7	Z7	X8	Y8	Z8	X9	Y9	Z9	X10	Y10	Z10	X11	Y11	Z11	X12	Y12	Z12	X13	Y13	Z13	X14	Y14	Z14	X15	Y15	Z15	X16	Y16	Z16	X17	Y17	Z17	X18	Y18	Z18	X19	Y19	Z19	X20	Y20	Z20	X21	Y21	Z21	X22	Y22	Z22	X23	Y23	Z23	X24	Y24	Z24	X25	Y25	Z25	X26	Y26	Z26	X27	Y27	Z27	X28	Y28	Z28	X29	Y29	Z29	X30	Y30	Z30	X31	Y31	Z31	X32	Y32	Z32	X33	Y33	Z33	

53	24.727142857143	788.273263159376	985.405375874863	534.492904327863	955.516194720338	1409.477889290806	328.554393105766	1051.791477898908	1357.001476181742	498.757275359195	955.677971804352	1433.612654215938	664.649585478301	928.415103324158	1480.680775228126	481.446047095488	1020.892112651516	940.270951962295	658.415650737125	1009.627418592762	942.962334214591	383.239743254090	1070.873441618641	737.931310261753	616.222825082438	994.725069930024	619.022791027470	668.666757602717	1069.126710845784	574.527528942762	582.813627259884	1070.915183721737	480.338549211014	583.148713928870	1083.233496858105	746.773234988229	417.057658835872	1027.487001490064	622.033573994860	339.700973877428	1122.977371703074	552.697192459112	405.820703854629	1126.373862734190	463.330851933532	397.742931619537	1053.807304701760	404.209718688961	383.349129934275	911.134107343001	375.748231078438	327.365817391975	885.179359352497	244.441262567472	372.767713731557	1030.615073900373	391.647518009448	585.299163058262	950.112888605699	292.826104248652	644.443356812981	975.905896698803	198.662340663217	574.800441877863	823.219596797572	42.853544884918	543.523654427995	994.808920559861	96.449976824841	579.158046309195	906.167187054638	37.254180151138	618.230845831725	1114.301249650692	44.658119954590	609.036954181208	689.703871524449	205.584867063058	403.041682779203	739.587899575864	150.170964826906	323.973553752219	844.045230435787	139.244649303278	345.817028296386	902.561281637873	28.637771901014	320.141834713329	966.887097347513	1045.107304234710	240.205548053778	1099.115959818234	828.336535864270	272.540069574079	916.069214760437	1099.527864900075	816.753066451071	1033.078917063828	865.743161713046	836.197640365134	
54	24.750357142857	787.048826050071	984.157291043700	539.377729910423	951.681572496529	1407.266693010843	329.907548224754	1050.707744418577	1355.280828642027	498.748569693542	957.550468322297	1432.454609497820	666.105297556042	927.392356721927	1479.253175419321	482.965676103288	1021.168011506438	938.917074230437	660.374852093634	1006.249645081882	941.673530321469	385.440841821133	1071.181853855159	736.645255802191	617.645637754087	995.670554044337	617.480468082900	669.830846462875	1069.649704912521	573.420152912471	583.215786668498	1071.570386470621	478.757096944002	583.126786239533	1086.922237800172	751.395563490420	420.898045336875	1037.642923166070	624.672604294479	342.826836083126	1135.612619811888	559.003581287800	410.096424586174	1141.939281738629	468.731763199968	401.430550336910	1068.842594599612	408.407963540131	386.730055307921	924.775849740192	382.114167953428	331.794626173913	897.740316345036	250.380850344824	376.073225419668	1030.044726261052	390.230773133550	585.269304197781	948.788139158599	292.094140805424	644.602321772739	973.021206891625	197.882589710618	574.575618060676	818.620573300002	42.955242899955	543.560823937342	990.322258796765	96.323678678514	579.064591576236	901.578031273146	37.262663773922	618.264577494114	1109.766071811792	44.305662299696	609.062175611206	701.997921458140	216.490497938403	408.695181422064	748.744687070506	159.951686276157	327.913315008813	853.970525844842	144.391948971913	348.086536648423	907.361902253861	28.289435397459	319.102361953064	951.371004556050	1041.753447752921	245.508295901484	1059.768914792837	810.474096899667	273.587227733894	933.684778163671	1096.718940390955	819.942169644489	1069.834902008576	874.265532549127	835.864922479532	
55	24.773571428571	785.870764687331	983.418089172683	543.800450772447	948.107283100038	1405.581360461641	331.260298782826	1049.798382228950	1353.883469231581	498.654290525781	959.696205888450	1431.658092557759	667.431457295222	926.608949769288	1478.227507873882	484.420487352575	1021.268939785552	937.709069424076	661.919384912551	1002.833818822110	940.850057646687	387.283508365719	1070.974323012256	735.405715251743	618.725733799582	995.928462612757	616.168753171208	670.750259458926	1069.461692424662	572.401501192665	583.443927173730	1071.395122930849	477.389372871182	582.992852577769	1089.563591226317	756.186443584172	424.278436754807	1046.124202249182	627.841386378417	345.608414706135	1146.042350201722	565.566122299010	414.008538144904	1155.239352217352	474.714281063882	404.849127750035	1082.258566802182	413.009882538665	389.885958664358	937.312457471035	387.111104338818	336.121301194895	910.966139678067	254.834588505497	379.467474035535	1028.835932061865	389.045279947788	585.174559690920	946.973395720991	291.508326631925	644.733498854769	969.870791869552	197.246767037959	574.370762574851	814.009282428863	43.065618248180	543.596152346481	985.841456363326	96.236752305035	579.037651835334	896.982124948097	37.272265518030	618.301565543147	1105.216490246138	43.956333197635	609.086175188760	715.802360189714	222.215437757542	414.493005248820	760.461236001110	166.086138694830	331.941721999059	866.272836057298	148.342794760232	350.516931966429	917.022356018757	28.528509807553	317.998968242120	935.523424408111	1039.824109735174	249.923195610878	1020.318022821413	797.216666439478	274.713357892890	951.862667637966	1094.929801650760	822.346670896057	1107.294632357497	886.380718021254	833.527789018428	
56	24.796785714286	784.767417003762	983.257410839719	547.775319529426	944.809629029100	1404.532577450063	332.628135230069	1049.096854737998	1352.885808388728	498.470899802335	962.157759754832	1431.271390159411	668.632545003185	926.090896957352	1477.675481370968	485.832748114408	1021.236767226382	936.718287066685	663.023881452747	999.443067389641	940.574940482932	388.723035647872	1070.225023340331	734.259676160565	619.464077256070	995.400936957493	615.159674365160	671.463918884634	1068.436876193549	571.503321058960	583.547707337933	1070.225572856831	476.288082365122	582.817707451959	1091.088858132572	760.954753067395	427.111507935409	1052.661601651134	631.334652423214	348.001006632641	1154.004817335803	572.049780357522	417.429534445499	1165.946364479742	480.996507225165	407.878333507795	1093.815608494846	417.762123581949	392.702739656087	948.698231917339	390.263809648718	340.111198716623	924.969049114883	257.394963898310	382.754438008052	1026.864972361333	388.142066012463	585.077401499066	944.566048765696	291.088118468567	644.871457372264	966.400393174337	196.780532379857	574.218516594821	809.383326118763	43.179681153598	543.635270736463	981.356043940766	96.187816024705	579.077894190903	892.376259503998	37.282431691577	618.345342351182	1100.645485005253	43.625959933874	609.111843912501	731.322956565132	222.032141796338	420.003910050832	775.155920432438	167.865086768082	335.776912273999	881.325401553382	150.681284026545	352.970352210520	932.288202786642	29.381215762621	316.995281071115	919.380029963399	1039.476447108079	253.376026926689	981.712207530523	788.631155360252	275.968403696285	970.493444232222	1094.296762890720	823.959353999798	1144.738209687544	902.238548191376	829.227136908268	
